<svg xmlns="http://www.w3.org/2000/svg" width="256" height="256" viewBox="0 0 100 100"><rect width="100" height="100" rx="0" fill="#090909"></rect><path d="M49.96 50.04L49.96 64.45Q49.96 66.63 49.19 67.68Q48.42 68.73 46.74 69.70L46.74 69.70Q45.76 70.27 44.29 70.79Q42.82 71.31 41.07 71.70Q39.32 72.09 37.40 72.30Q35.47 72.51 33.58 72.51L33.58 72.51Q28.54 72.51 24.13 71.21Q19.72 69.92 16.47 67.19Q13.21 64.45 11.32 60.22Q9.43 55.98 9.43 50.11L9.43 50.11Q9.43 44.58 11.32 40.38Q13.21 36.18 16.50 33.30Q19.79 30.44 24.20 28.97Q28.61 27.49 33.72 27.49L33.72 27.49Q40.37 27.49 44.26 29.59Q48.14 31.70 48.14 35.13L48.14 35.13Q48.14 36.95 47.23 38.27Q46.32 39.61 45.13 40.38L45.13 40.38Q43.38 39.33 40.72 38.34Q38.06 37.37 34.63 37.37L34.63 37.37Q31.83 37.37 29.52 38.27Q27.21 39.19 25.53 40.83Q23.85 42.48 22.94 44.82Q22.03 47.17 22.03 50.04L22.03 50.04Q22.03 53.19 22.91 55.57Q23.78 57.95 25.36 59.52Q26.93 61.10 29.07 61.90Q31.20 62.71 33.79 62.71L33.79 62.71Q35.33 62.71 36.49 62.43Q37.64 62.15 38.27 61.80L38.27 61.80L38.27 55.08L30.78 55.08Q30.36 54.31 29.98 53.05Q29.59 51.79 29.59 50.39L29.59 50.39Q29.59 47.87 30.75 46.75Q31.90 45.63 33.72 45.63L33.72 45.63L45.55 45.63Q47.65 45.63 48.81 46.78Q49.96 47.94 49.96 50.04L49.96 50.04ZM57.10 57.73L57.10 37.37Q57.88 37.16 59.31 36.95Q60.74 36.73 62.42 36.73L62.42 36.73Q65.92 36.73 67.47 37.89Q69.00 39.05 69.00 42.34L69.00 42.34L69.00 57.73Q69.00 60.61 70.41 61.83Q71.81 63.06 74.47 63.06L74.47 63.06Q76.08 63.06 77.09 62.78Q78.10 62.50 78.66 62.22L78.66 62.22L78.66 37.37Q79.44 37.16 80.87 36.95Q82.31 36.73 83.98 36.73L83.98 36.73Q87.48 36.73 89.03 37.89Q90.56 39.05 90.56 42.34L90.56 42.34L90.56 63.97Q90.56 67.47 87.63 69.22L87.63 69.22Q85.17 70.76 81.78 71.56Q78.38 72.37 74.39 72.37L74.39 72.37Q70.61 72.37 67.43 71.53Q64.25 70.69 61.93 68.94Q59.63 67.19 58.36 64.42Q57.10 61.66 57.10 57.73L57.10 57.73Z" fill="#ffffff"></path></svg>